<?xml version="1.0" encoding="UTF-8" standalone="no"?>
<!-- Created with Inkscape (http://www.inkscape.org/) -->

<svg
   height="45.412498"
   width="23.455694"
   sodipodi:docname="drawing.svg"
   version="1.1"
   id="svg1"
   xml:space="preserve"
   inkscape:version="1.4 (e7c3feb1, 2024-10-09)"
   xmlns:inkscape="http://www.inkscape.org/namespaces/inkscape"
   xmlns:sodipodi="http://sodipodi.sourceforge.net/DTD/sodipodi-0.dtd"
   xmlns="http://www.w3.org/2000/svg"
   xmlns:svg="http://www.w3.org/2000/svg"
   xmlns:rdf="http://www.w3.org/1999/02/22-rdf-syntax-ns#"
   xmlns:cc="http://creativecommons.org/ns#"
   xmlns:dc="http://purl.org/dc/elements/1.1/"><sodipodi:namedview
     id="base"
     pagecolor="#ffffff"
     bordercolor="#000000"
     borderopacity="0.3"
     inkscape:pageopacity="0.0"
     inkscape:pageshadow="2"
     inkscape:zoom="5.6584288"
     inkscape:cx="26.597489"
     inkscape:cy="21.207301"
     inkscape:document-units="px"
     inkscape:current-layer="layer1"
     showgrid="false"
     showguides="true"
     inkscape:window-width="1488"
     inkscape:window-height="1033"
     inkscape:window-x="346"
     inkscape:window-y="275"
     inkscape:window-maximized="0"
     showborder="true"
     inkscape:showpageshadow="false"
     inkscape:pagecheckerboard="0"
     inkscape:deskcolor="#d1d1d1"><sodipodi:guide
       id="guide_baseline"
       inkscape:label="baseline"
       position="-0.19868778,253.33664"
       orientation="0,1"
       inkscape:locked="false" /><sodipodi:guide
       id="guide_ascender"
       inkscape:label="ascender"
       position="-0.19868778,945.33664"
       orientation="0,1"
       inkscape:locked="false" /><sodipodi:guide
       id="guide_caps"
       inkscape:label="caps"
       position="-0.19868778,896.33664"
       orientation="0,1"
       inkscape:locked="false" /><sodipodi:guide
       id="guide_xheight"
       inkscape:label="xheight"
       position="-0.19868778,729.33664"
       orientation="0,1"
       inkscape:locked="false" /><sodipodi:guide
       id="guide_descender"
       inkscape:label="descender"
       position="-0.19868778,28.336645"
       orientation="0,1"
       inkscape:locked="false" /></sodipodi:namedview><defs
     id="defs4" /><metadata
     id="metadata7"><rdf:RDF><cc:Work
         rdf:about=""><dc:format>image/svg+xml</dc:format><dc:type
           rdf:resource="http://purl.org/dc/dcmitype/StillImage" /></cc:Work></rdf:RDF></metadata><g
     id="layer1"
     inkscape:groupmode="layer"
     inkscape:label="Layer 1"
     transform="translate(-0.19868778,-0.33664469)"><path
       id="path1"
       style="fill:#000000;fill-opacity:1"
       d="m 11.92525,0.33664469 c -2.9391201,0 -5.8791138,0.0178118 -8.8183591,0.0527344 -0.00325,3.867e-5 -0.00651,-3.872e-5 -0.00977,0 -0.045653,8.934e-4 -0.091081,0.0116405 -0.1367188,0.0214844 -0.014941,0.003232 -0.029979,0.001736 -0.044922,0.005859 -6.366e-4,1.7438e-4 -0.00132,-1.7593e-4 -0.00195,0 -0.062668,0.0173186 -0.1248562,0.0436359 -0.1875,0.0742188 -5.622e-4,2.7446e-4 -0.00139,-2.7541e-4 -0.00195,0 -0.3861876,0.1891816 -0.7724483,0.59805013 -1.1582031,0.84765623 0.2288282,0.1213166 0.456321,0.283183 0.6835937,0.4335938 0.044368,0.029363 0.088447,0.05992 0.1328125,0.087891 0.255084,0.162446 0.5103779,0.2917873 0.7714844,0.3125 0.015604,0.00138 0.031257,0.00529 0.046875,0.00586 0.00259,6.92e-5 0.00522,-4.65e-5 0.00781,0 0.7166516,0.022355 1.4327467,0.036982 2.1503906,0.044922 0.7267052,0.00811 1.4534887,0.010395 2.1796875,0.00977 1.4322537,-0.00133 2.8670495,-0.013605 4.3007815,-0.013672 h 0.01172 0.0078 c 2.902628,2.173e-4 5.805385,0.046551 8.707031,-0.039063 0.03385,-9.986e-4 0.06772,-9.178e-4 0.101563,-0.00195 0.0033,-8.82e-5 0.0065,8.84e-5 0.0098,0 0.547,-0.02 1.085047,-0.5496094 1.623047,-0.8496094 -0.51,-0.33000002 -1.019062,-0.93945314 -1.539062,-0.93945313 -0.0033,-3.872e-5 -0.0065,3.867e-5 -0.0098,0 -1.467746,-0.0174613 -2.936442,-0.0303125 -4.404297,-0.0390625 -0.0033,-1.936e-5 -0.0065,1.931e-5 -0.0098,0 -1.47111,-0.00875 -2.940922,-0.0136719 -4.41211,-0.0136719 z m -0.0625,3.08789061 c -2.5094997,-0.00375 -5.0207497,0.00773 -7.5312497,0.052734 -1.1062938,0.015024 -1.9437087,0.3182545 -2.5625,0.9101562 -0.07622,0.072908 -0.149113,0.1487226 -0.21875,0.2304688 -0.00121,0.00141 -0.0027,0.00249 -0.00391,0.00391 -0.069278,0.0816 -0.1362967,0.1674191 -0.1992187,0.2578125 -0.00106,0.00151 -0.00285,0.00239 -0.00391,0.00391 C 1.2803485,4.9741251 1.2221689,5.0692443 1.1654847,5.1686759 1.1073619,5.2701936 1.053148,5.376221 1.0014222,5.4870353 c -3.793e-4,8.126e-4 -0.001574,0.00114 -0.001953,0.00195 -0.0509966,0.1094631 -0.0975153,0.2233085 -0.14257813,0.3417969 -3.0981e-4,8.167e-4 -0.001644,0.00114 -0.001953,0.00195 -0.0450499,0.1186098 -0.0857071,0.2414765 -0.125,0.3691407 -0.0594232,0.1943548 -0.10802503,0.4094061 -0.15429688,0.625 -0.0151206,0.069293 -0.0349892,0.1296962 -0.0488281,0.2011718 -1.2425e-4,6.554e-4 1.2414e-4,0.0013 0,0.00195 -0.20375127,1.0294084 -0.30664062,2.0893118 -0.30664062,3.1386719 -0.028,4.29 -0.009766,8.579141 -0.009766,12.869141 v 0.002 c 0,2.05 -0.028,4.098437 0,6.148437 0.0649869,3.219351 6.234e-4,6.470547 0.31640625,9.669922 6.364e-5,6.45e-4 -6.367e-5,0.0013 0,0.002 0.001754,0.01817 0.004,0.03471 0.005859,0.05273 0.047956,0.464123 0.13090764,0.882094 0.24804688,1.253906 1.8343e-4,5.82e-4 -1.836e-4,0.0014 0,0.002 0.20341831,0.644828 0.51168537,1.152845 0.92382817,1.537109 0.4128239,0.384899 0.929884,0.645535 1.5527343,0.791016 0.2489346,0.05814 0.5143233,0.09873 0.796875,0.121094 0.1412757,0.01125 0.2858594,0.01898 0.4355469,0.02148 2.45,0.04 4.9028438,0.05203 7.3554686,0.05078 2.452625,-0.0012 4.905469,-0.01625 7.355469,-0.03125 0.244875,-0.0012 0.48143,-0.02002 0.707031,-0.05469 0.112754,-0.01733 0.222284,-0.03889 0.330078,-0.06445 0.431332,-0.102256 0.822059,-0.269385 1.169922,-0.5 0.173528,-0.115041 0.336712,-0.246588 0.488281,-0.392578 0.07631,-0.0735 0.150108,-0.149245 0.220704,-0.230469 3.29e-4,-3.79e-4 -3.3e-4,-0.0016 0,-0.002 0.140156,-0.161392 0.269712,-0.33795 0.386718,-0.529297 0.117282,-0.191797 0.22318,-0.39791 0.316407,-0.619141 2.3e-4,-5.47e-4 -2.31e-4,-0.0014 0,-0.002 0.09309,-0.220683 0.173794,-0.455766 0.242187,-0.705078 1.64e-4,-6.05e-4 -1.64e-4,-0.0013 0,-0.002 0.02017,-0.07427 0.03535,-0.151663 0.05469,-0.226563 0.299076,-1.158615 0.499645,-2.386011 0.501953,-3.582031 1.2e-5,-0.0065 -1e-6,-0.01308 0,-0.01953 3e-6,-6.51e-4 -4e-6,-0.0013 0,-0.002 0.023,-4.225 0.03516,-8.452188 0.03516,-12.679688 -4e-6,-4.226849 -0.01166,-8.453385 -0.03516,-12.677734 v -0.002 c -4.6e-5,-0.0065 5.4e-5,-0.01305 0,-0.01953 -0.0017,-0.9532268 -0.115686,-1.9296367 -0.3125,-2.8769527 -4.21e-4,-0.00202 -0.0015,-0.00384 -0.002,-0.00586 C 23.2686,7.2932483 23.224073,7.125569 23.183063,6.9557853 23.148729,6.8137076 23.119265,6.6702097 23.0815,6.5300041 c -1.66e-4,-6.158e-4 1.67e-4,-0.00134 0,-0.00195 -0.129832,-0.479379 -0.308858,-0.9094081 -0.53125,-1.2851562 -2.83e-4,-4.77e-4 2.84e-4,-0.00148 0,-0.00195 -0.66839,-1.1282813 -1.744312,-1.7659375 -3.164062,-1.7734375 -2.5065,-0.02 -5.013938,-0.039219 -7.523438,-0.042969 z m 0.08399,40.4394527 c -2.9937381,0 -5.9870136,0.01505 -8.978516,0.04492 -0.00651,6.5e-5 -0.013024,-6.5e-5 -0.019531,0 -0.464,0 -0.926625,0.590157 -1.390625,0.910157 0.482,0.31 0.9555,0.868906 1.4375,0.878906 0.0026,7.1e-5 0.00521,-7.1e-5 0.00781,0 0.00393,1.49e-4 0.00779,0.0019 0.011719,0.002 0.6104241,0.0166 1.2195859,0.02551 1.8300782,0.0332 0.1191324,0.0015 0.238292,0.0046 0.3574218,0.0059 0.7414553,0.0076 1.4831221,0.0098 2.2246094,0.0098 1.4594019,-7.9e-5 2.9176746,-0.0097 4.3769536,-0.0098 h 0.01758 0.01953 c 1.492516,8.6e-5 2.987685,0.0098 4.482422,0.0098 0.750708,-3.5e-5 1.501666,-0.0022 2.251953,-0.0098 0.750344,-0.0075 1.5005,-0.01906 2.25,-0.03906 0.502,-0.01 0.982609,-0.540078 1.474609,-0.830078 -0.395234,-0.293095 -0.789612,-0.813531 -1.185547,-0.933594 -6.26e-4,-1.9e-4 -0.0013,1.88e-4 -0.002,0 -0.0046,-0.0014 -0.0091,-6.15e-4 -0.01367,-0.002 -0.04473,-0.01238 -0.09002,-0.02439 -0.134765,-0.02539 a 899.73,899.73 0 0 0 -0.01758,0 c -2.998,-0.03 -5.99975,-0.04492 -9,-0.04492 z" /></g></svg>
