<svg width="51" height="50" viewBox="0 0 51 50" fill="none" xmlns="http://www.w3.org/2000/svg">
<path d="M21.0919 5.71C21.5802 3.23667 23.0582 2 25.5259 2C27.6901 2 28.9899 3.24 29.4254 5.72C30.8209 5.72 32.2758 5.72 33.7307 5.72C35.3242 5.72 36.106 6.5 36.106 8.12C36.106 20.43 36.106 32.74 36.106 45.05C36.106 46.69 35.245 47.42 33.6911 47.42C28.0893 47.42 22.4874 47.42 16.8955 47.42C15.2129 47.41 14.4211 46.61 14.4211 44.89C14.431 32.64 14.431 20.4 14.4211 8.15C14.4211 6.41 15.2921 5.68 16.9449 5.71C18.3405 5.74 19.736 5.71 21.082 5.71H21.0919ZM22.7447 41.15C22.9031 41.18 23.0713 41.21 23.2297 41.25C25.9515 36.78 28.6732 32.3 31.4543 27.73C30.9397 27.44 30.5933 27.21 30.2172 27.03C27.5911 25.79 26.4826 23.7167 26.8917 20.81C27.1985 18.6 27.4657 16.38 27.7528 14.16C27.6043 14.12 27.4558 14.08 27.3074 14.03C24.5757 18.53 21.8342 23.03 19.0333 27.64C20.9137 28.52 22.5666 29.29 24.259 30.08C23.7444 33.84 23.2396 37.49 22.7447 41.15Z" fill="#CACACA" style="fill:#CACACA;fill:color(display-p3 0.7922 0.7922 0.7922);fill-opacity:1;"/>
</svg>
