<svg width="44" height="44" viewBox="0 0 44 44" fill="none" xmlns="http://www.w3.org/2000/svg">
<circle cx="22" cy="22" r="20" fill="#FFA800" style="fill:#FFA800;fill:color(display-p3 1.0000 0.6600 0.0000);fill-opacity:1;"/>
<path d="M25.8018 13.3988H23.731V12.1825C23.731 12.0634 23.6837 11.9492 23.5994 11.8649C23.5152 11.7807 23.401 11.7334 23.2819 11.7334H20.7182C20.5991 11.7334 20.4849 11.7807 20.4007 11.8649C20.3164 11.9492 20.2691 12.0634 20.2691 12.1825V13.3988H18.1983C17.96 13.3988 17.7316 13.4935 17.5631 13.6619C17.3947 13.8304 17.3 14.0588 17.3 14.297V31.3692C17.3017 31.6069 17.3968 31.8344 17.5649 32.0025C17.733 32.1706 17.9605 32.2658 18.1983 32.2674H25.8018C26.0396 32.2658 26.2671 32.1706 26.4352 32.0025C26.6033 31.8344 26.6984 31.6069 26.7 31.3692V14.297C26.7 14.0588 26.6054 13.8304 26.437 13.6619C26.2685 13.4935 26.0401 13.3988 25.8018 13.3988ZM20.8866 29.8473L21.6227 24.3956L19.3522 23.329L23.1384 16.817L22.4024 22.2624L24.6728 23.329L20.8866 29.8473Z" fill="white" style="fill:white;fill-opacity:1;"/>
</svg>
