<svg width="44" height="44" viewBox="0 0 44 44" fill="none" xmlns="http://www.w3.org/2000/svg">
<circle cx="22" cy="22" r="20" fill="#FF5000" style="fill:#FF5000;fill:color(display-p3 1.0000 0.3137 0.0000);fill-opacity:1;"/>
<path fill-rule="evenodd" clip-rule="evenodd" d="M23.7888 13.5029H20.1389H20.1324C20.1074 13.5012 20.0839 13.4901 20.0668 13.4717C20.0497 13.4534 20.0402 13.4293 20.0403 13.4042V11.28C20.0403 11.2521 20.0514 11.2254 20.0711 11.2056C20.0908 11.1859 20.1176 11.1748 20.1455 11.1748H23.7757C23.8036 11.1748 23.8304 11.1859 23.8501 11.2056C23.8698 11.2254 23.8809 11.2521 23.8809 11.28V13.4042C23.881 13.4293 23.8715 13.4534 23.8544 13.4717C23.8373 13.4901 23.8139 13.5012 23.7888 13.5029ZM23.4666 14.121V14.8576H23.4995C24.3114 15.1588 25.0115 15.7017 25.5054 16.4131C25.9993 17.1245 26.2632 17.9703 26.2616 18.8363V31.5617C26.2624 31.7272 26.2306 31.8912 26.1679 32.0444C26.1051 32.1975 26.0127 32.3368 25.896 32.4541C25.7793 32.5714 25.6405 32.6646 25.4877 32.7281C25.3349 32.7916 25.171 32.8243 25.0055 32.8243H18.9946C18.8291 32.8243 18.6653 32.7916 18.5124 32.7281C18.3596 32.6646 18.2208 32.5714 18.1041 32.4541C17.9874 32.3368 17.895 32.1975 17.8323 32.0444C17.7695 31.8912 17.7377 31.7272 17.7385 31.5617V18.8363C17.7388 17.9707 18.0034 17.1258 18.497 16.4148C18.9907 15.7037 19.6897 15.1604 20.5006 14.8576V14.121H23.4666Z" fill="white" style="fill:white;fill-opacity:1;"/>
</svg>
