<svg width="51" height="50" viewBox="0 0 51 50" fill="none" xmlns="http://www.w3.org/2000/svg">
<path d="M22.6294 8.08984H28.4886C28.4094 8.19984 28.3302 8.30984 28.251 8.41984C28.8449 9.01984 29.3595 9.74984 30.0523 10.2098C32.8038 11.9998 34.3873 14.4898 34.4071 17.7898C34.4665 26.6598 34.4368 35.5198 34.4269 44.3898C34.4269 46.4098 33.457 47.3898 31.4478 47.3998C27.5186 47.4198 23.5795 47.4198 19.6503 47.3998C17.651 47.3898 16.6811 46.4098 16.6811 44.3798C16.6712 35.5098 16.6316 26.6498 16.7009 17.7798C16.7306 14.4198 18.3538 11.8898 21.2042 10.1298C21.8277 9.74984 22.2632 9.06984 22.7877 8.51984C22.7382 8.37984 22.6888 8.22984 22.6393 8.08984H22.6294Z" fill="#CACACA" style="fill:#CACACA;fill:color(display-p3 0.7922 0.7922 0.7922);fill-opacity:1;"/>
<path d="M21.6792 2H29.4387V6.65H21.6792V2Z" fill="#CACACA" style="fill:#CACACA;fill:color(display-p3 0.7922 0.7922 0.7922);fill-opacity:1;"/>
</svg>
