<svg width="29" height="27" viewBox="0 0 29 27" fill="none" xmlns="http://www.w3.org/2000/svg">
<path d="M28.1172 10.6104C28.0257 10.8904 27.7644 11.0684 27.4834 11.0684C27.4151 11.0684 27.3457 11.0579 27.2773 11.0357L24.8531 10.2529C24.503 10.1399 24.3113 9.76614 24.4251 9.41809C24.5388 9.07009 24.9149 8.8796 25.2651 8.99268L27.6893 9.77547C28.0394 9.88866 28.231 10.2624 28.1172 10.6104ZM21.242 3.93864C21.2887 3.94853 21.3353 3.95327 21.3813 3.95327C21.6893 3.95327 21.966 3.73983 22.0327 3.42838L22.5627 0.95047C22.6392 0.592587 22.4094 0.240722 22.0492 0.16464C21.6892 0.0885586 21.3352 0.317025 21.2586 0.674963L20.7286 3.15287C20.6521 3.51075 20.8819 3.86256 21.242 3.93864ZM24.9438 6.23264L27.1334 4.97624C27.4523 4.79327 27.5615 4.38807 27.3775 4.07115C27.1934 3.75418 26.7857 3.64563 26.4668 3.82861L24.2772 5.08501C23.9583 5.26798 23.8491 5.67318 24.0331 5.99009C24.1566 6.20266 24.3807 6.32148 24.6111 6.32148C24.7242 6.32148 24.8388 6.29288 24.9438 6.23264ZM23.5543 14.3786C23.8212 14.8379 23.8917 15.3744 23.7529 15.8892C23.6141 16.404 23.2831 16.8336 22.821 17.0988C22.5062 17.2794 22.1622 17.3652 21.8225 17.3652C21.274 17.3652 20.7375 17.1407 20.3536 16.7311C17.4188 17.0102 14.4911 17.8202 11.6333 19.1427L15.2538 22.741C15.5142 22.9998 15.5142 23.4193 15.2538 23.678L12.9619 25.956C12.8369 26.0802 12.6673 26.15 12.4905 26.15C12.3138 26.15 12.1442 26.0802 12.0192 25.956L7.47691 21.4415C6.87295 21.7397 6.22689 21.8825 5.58804 21.8825C4.11221 21.8825 2.67503 21.1219 1.88559 19.7629L0.720842 17.7578C-0.455517 15.7327 0.245098 13.134 2.28262 11.9647L5.384 10.1851C8.29773 8.28138 10.7225 5.99247 12.5964 3.37808C12.3291 2.51114 12.6869 1.54229 13.5099 1.07006C14.4668 0.521143 15.6945 0.848108 16.2469 1.79897L18.3784 5.4684L18.5535 5.36791C19.2555 4.96514 20.0756 4.85864 20.8629 5.06839C21.6502 5.27803 22.3069 5.77775 22.7122 6.47541C23.1174 7.17306 23.2245 7.98821 23.0135 8.77062C22.8026 9.55308 22.2998 10.2058 21.5978 10.6086L21.4228 10.709L23.5543 14.3786ZM19.045 6.61603L20.7561 9.56158L20.9311 9.46115C21.3247 9.23533 21.6069 8.86834 21.7256 8.42781C21.8444 7.98727 21.7847 7.52923 21.5575 7.13806C21.3303 6.74694 20.961 6.46646 20.5178 6.34842C20.0745 6.23043 19.6137 6.28978 19.2201 6.51554L19.045 6.61603ZM6.62263 10.9543L10.7648 18.0848C13.6444 16.7146 16.5986 15.8416 19.5687 15.483L13.2917 4.67738C11.4942 7.05447 9.2565 9.1608 6.62263 10.9543ZM7.04766 20.1677L9.58831 18.7098L5.48988 11.6545L2.94918 13.1124C1.54828 13.9163 1.06659 15.703 1.87537 17.0954L3.04012 19.1005C3.84895 20.4927 5.64676 20.9715 7.04766 20.1677ZM13.8397 23.2096L10.3892 19.7802L8.6786 20.7618L12.4905 24.5505L13.8397 23.2096ZM22.3997 15.0411L15.0922 2.46156C14.9074 2.14338 14.4966 2.03395 14.1764 2.21769C13.8563 2.40138 13.7462 2.80973 13.931 3.12791L21.2385 15.7074C21.4233 16.0256 21.8342 16.135 22.1543 15.9513C22.3081 15.8631 22.4184 15.7192 22.4651 15.5463C22.5117 15.3734 22.4885 15.194 22.3997 15.0411Z" fill="#333333" stroke="#333333" stroke-width="0.3"/>
</svg>
