<svg width="15" height="15" viewBox="0 0 15 15" fill="none" xmlns="http://www.w3.org/2000/svg">
<path d="M14.5086 4.76438C14.32 4.25747 14.0795 3.77129 13.7975 3.31124C13.7073 3.16412 13.4668 3.10267 13.3719 3.2782C13.272 3.46316 13.1609 3.61657 13.1134 3.68204C13.1129 3.68265 13.1125 3.68326 13.1121 3.68388C13.034 3.79201 13.0257 3.93615 13.0908 4.05258C13.647 5.04873 13.9833 6.17075 13.9937 7.31157C13.9955 7.45982 13.9927 7.64312 13.9818 7.7905C13.9729 7.94286 13.9552 8.11594 13.93 8.26655C13.8661 8.68438 13.7417 9.09827 13.6071 9.4981C13.5751 9.58219 13.5302 9.71278 13.4945 9.79451L13.434 9.9411C13.4113 9.98865 13.3571 10.1118 13.3346 10.1578C13.3114 10.203 13.2513 10.3241 13.2272 10.3706C13.1535 10.5053 13.0702 10.6556 12.9888 10.7845C12.6064 11.3933 12.125 11.9419 11.5768 12.4033C11.0269 12.8641 10.4043 13.2419 9.74155 13.5128C9.60022 13.5693 9.43733 13.6282 9.29401 13.6758C9.2469 13.6909 9.10973 13.7309 9.06652 13.7446C9.01387 13.7595 8.89219 13.7889 8.83668 13.8047C6.46232 14.3839 3.79924 13.4392 2.29597 11.4974C1.24821 10.152 0.746807 8.36366 0.992141 6.66673C1.24657 4.95791 2.26471 3.41185 3.60595 2.35512C5.60768 0.769293 8.57135 0.514049 10.8299 1.6942C10.9827 1.77401 11.2165 1.74805 11.3492 1.63747C11.4608 1.54438 11.4816 1.48537 11.5831 1.37646C11.7196 1.22995 11.6679 1.05102 11.5227 0.963959C11.4446 0.917106 11.3646 0.870778 11.3037 0.839659C8.58962 -0.564967 5.05527 -0.191979 2.74758 1.84359C1.37352 3.03912 0.357459 4.69847 0.0809494 6.52748C-0.377244 9.48035 1.14525 12.5868 3.74667 14.0122C5.08029 14.764 6.63777 15.1179 8.16234 14.965C8.32922 14.9506 8.5458 14.9182 8.71034 14.8886C8.94779 14.8467 9.19642 14.7894 9.42798 14.7217C10.3685 14.4533 11.2556 13.9919 12.0311 13.3927C12.7079 12.8663 13.3074 12.2308 13.7839 11.5147C13.9715 11.2359 14.1435 10.932 14.2926 10.6309C14.3509 10.5082 14.4316 10.3328 14.4824 10.2058C14.5243 10.1098 14.5791 9.95649 14.6165 9.85745C14.6349 9.79967 14.6857 9.64818 14.7027 9.59215C14.7252 9.505 14.7557 9.4099 14.7762 9.32292C14.8479 9.02625 14.904 8.71016 14.9384 8.40711C15.0978 7.17765 14.9455 5.92198 14.5086 4.76429L14.5086 4.76438Z" fill="white"/>
<path d="M13.7837 1.00841C13.6528 0.788572 13.3702 0.717506 13.1524 0.849673C13.0962 0.883764 13.0445 0.921876 12.9939 0.960949C12.7623 1.13534 12.5201 1.4161 12.3248 1.62755C10.6085 3.4959 9.05314 5.52972 7.76992 7.72997C7.64228 7.94422 7.50987 8.17936 7.40274 8.40506C7.2996 8.61773 7.1898 8.85199 7.09168 9.06834C6.41673 7.82105 5.35477 6.45227 4.09415 5.89213C3.59015 5.68164 3.09143 6.2173 3.34101 6.7145C3.41496 6.86109 3.5013 6.99781 3.58781 7.13566C4.0092 7.80576 4.50437 8.41773 4.94196 9.07385C5.49835 9.89578 5.96694 10.7661 6.42019 11.648C6.73238 12.2426 7.61673 12.1535 7.80292 11.5012C8.11545 10.8375 8.43673 10.1818 8.78027 9.53521C8.88999 9.32551 9.01677 9.10217 9.12225 8.89098C9.22478 8.68346 9.34004 8.44352 9.44665 8.23749C10.3304 6.49108 11.3908 4.84432 12.5374 3.25727C12.7317 2.98978 12.997 2.62755 13.1959 2.36304C13.3223 2.19206 13.5249 1.93996 13.6335 1.76226C13.7012 1.65509 13.7646 1.54565 13.8137 1.42703C13.8684 1.29504 13.8621 1.14014 13.7837 1.00833V1.00841Z" fill="white"/>
</svg>
