<?xml version="1.0" standalone="no"?>
<!DOCTYPE svg PUBLIC "-//W3C//DTD SVG 20010904//EN"
 "http://www.w3.org/TR/2001/REC-SVG-20010904/DTD/svg10.dtd">
<svg version="1.0" xmlns="http://www.w3.org/2000/svg"
 width="512.000000pt" height="512.000000pt" viewBox="0 0 512.000000 512.000000"
 preserveAspectRatio="xMidYMid meet">

<g transform="translate(0.000000,512.000000) scale(0.100000,-0.100000)"
fill="#000000" stroke="none">
<path d="M2635 4549 c-347 -48 -638 -206 -871 -473 l-51 -59 -54 21 c-330 122
-699 -51 -819 -385 -22 -62 -23 -63 -60 -63 -60 0 -189 -37 -280 -81 -507
-241 -657 -887 -310 -1330 162 -208 413 -329 688 -333 108 -1 115 0 133 23 25
30 24 76 -1 101 -15 15 -33 20 -78 20 -230 0 -425 75 -565 218 -100 101 -147
179 -188 312 -34 107 -34 292 0 400 47 152 129 274 249 370 116 92 246 141
414 156 92 8 104 18 124 103 20 88 58 157 126 227 157 164 397 197 595 83 58
-33 82 -22 147 64 180 239 436 400 736 463 104 22 331 25 440 5 174 -31 367
-115 509 -221 71 -53 189 -169 238 -232 30 -40 64 -50 112 -34 147 53 318 10
427 -106 62 -67 95 -143 107 -248 13 -120 3 -109 147 -173 188 -85 326 -245
391 -457 20 -62 24 -97 24 -200 0 -142 -20 -223 -83 -344 -44 -84 -160 -209
-245 -265 -118 -76 -283 -121 -449 -121 -45 0 -63 -5 -78 -20 -25 -25 -26 -71
-1 -101 18 -23 25 -24 133 -23 414 5 747 266 854 670 28 105 26 312 -4 424
-66 241 -223 438 -443 555 -64 33 -90 52 -93 68 -21 116 -28 145 -49 190 -53
115 -159 221 -275 274 -29 14 -89 32 -134 41 -68 13 -94 14 -161 4 l-81 -12
-110 108 c-204 198 -408 307 -679 363 -118 24 -326 33 -432 18z"/>
<path d="M3476 3748 c-84 -23 -157 -139 -125 -196 33 -59 105 -52 136 13 20
43 47 53 74 29 15 -13 18 -25 14 -43 -7 -25 -75 -129 -167 -250 -56 -74 -62
-114 -25 -149 22 -21 33 -22 174 -22 l152 0 20 26 c26 33 27 65 2 95 -15 19
-30 24 -84 27 l-65 4 64 94 c69 102 89 157 80 218 -18 112 -137 185 -250 154z"/>
<path d="M1630 3381 c-229 -73 -377 -307 -342 -538 41 -259 260 -437 518 -421
105 7 180 37 249 100 48 44 55 55 55 87 0 75 -81 98 -136 40 -103 -111 -300
-105 -427 11 -102 93 -139 237 -93 368 22 66 101 154 170 190 46 24 62 27 151
27 93 0 104 -2 163 -32 74 -39 81 -40 116 -12 32 26 36 79 6 109 -79 79 -295
115 -430 71z"/>
<path d="M2580 3377 c-206 -70 -340 -256 -340 -470 0 -221 172 -433 387 -477
76 -16 205 -8 275 17 217 79 354 310 318 538 -30 186 -170 346 -349 399 -81
24 -211 21 -291 -7z m305 -159 c28 -15 69 -46 92 -70 136 -140 130 -356 -14
-488 -75 -69 -144 -93 -248 -88 -62 4 -92 11 -133 32 -269 138 -248 522 36
629 71 26 201 19 267 -15z"/>
<path d="M1221 2124 c-21 -26 -21 -37 -21 -461 l0 -435 -66 61 c-58 55 -70 62
-101 59 -47 -4 -79 -44 -69 -85 5 -17 56 -77 129 -151 120 -121 159 -152 193
-152 10 0 82 64 161 142 126 126 143 146 143 175 0 42 -30 73 -71 73 -25 0
-45 -14 -100 -67 l-69 -66 0 446 c0 434 -1 448 -20 467 -30 30 -83 27 -109 -6z"/>
<path d="M1864 2129 c-18 -20 -19 -48 -22 -661 l-2 -640 -66 61 c-47 44 -72
61 -92 61 -60 0 -95 -56 -68 -108 17 -32 241 -255 273 -271 12 -6 30 -11 39
-11 10 0 82 64 161 142 126 126 143 146 143 175 0 42 -30 73 -71 73 -25 0 -45
-14 -100 -67 l-69 -66 0 646 c0 634 0 647 -20 667 -27 27 -81 26 -106 -1z"/>
<path d="M2504 2129 c-18 -20 -19 -45 -22 -461 l-3 -440 -64 61 c-48 47 -70
61 -93 61 -43 0 -73 -28 -74 -69 -1 -30 13 -47 144 -177 104 -104 151 -144
168 -144 17 0 64 40 168 144 131 130 145 147 144 177 -1 41 -31 69 -74 69 -23
0 -45 -14 -93 -61 l-64 -61 -3 440 c-3 416 -4 441 -22 461 -13 14 -31 21 -56
21 -25 0 -43 -7 -56 -21z"/>
<path d="M3150 2130 c-20 -20 -20 -33 -20 -667 l0 -646 -69 66 c-55 53 -75 67
-100 67 -41 0 -71 -31 -71 -73 0 -29 17 -49 143 -175 79 -78 151 -142 161
-142 9 0 27 5 39 11 32 16 256 239 273 271 27 52 -8 108 -68 108 -20 0 -45
-17 -92 -61 l-66 -61 -2 640 c-3 613 -4 641 -22 661 -25 27 -79 28 -106 1z"/>
<path d="M3790 2130 c-19 -19 -20 -33 -20 -467 l0 -446 -69 66 c-55 53 -75 67
-100 67 -41 0 -71 -31 -71 -73 0 -29 17 -49 143 -175 79 -78 151 -142 161
-142 34 0 73 31 193 152 73 74 124 134 129 151 10 41 -22 81 -69 85 -31 3 -43
-4 -101 -59 l-66 -61 0 435 c0 424 0 435 -21 461 -26 33 -79 36 -109 6z"/>
</g>
</svg>
