<svg width="51" height="50" viewBox="0 0 51 50" fill="none" xmlns="http://www.w3.org/2000/svg">
<path d="M11.8988 4.9668H38.8095C37.0181 19.1168 35.2366 33.1768 33.4353 47.4168C31.6241 47.4168 29.9217 47.4168 28.2194 47.4168C25.5273 47.4168 22.8353 47.3968 20.1432 47.3868C17.1444 47.3768 17.1543 47.3668 16.7782 44.4368C15.1946 31.9368 13.5912 19.4368 12.0077 6.9368C11.9285 6.3268 11.9285 5.6968 11.8889 4.9668H11.8988Z" fill="#CACACA" style="fill:#CACACA;fill:color(display-p3 0.7922 0.7922 0.7922);fill-opacity:1;"/>
<path d="M25.4581 2.00639C29.6941 2.00639 33.9301 1.97639 38.1563 2.04639C38.7699 2.05639 39.3736 2.55639 39.9774 2.83639C39.4033 3.13639 38.8293 3.69639 38.2553 3.69639C29.6149 3.75639 20.9746 3.75639 12.3343 3.69639C11.7504 3.69639 11.1763 3.13639 10.5924 2.84639C11.206 2.56639 11.8098 2.05639 12.4135 2.04639C16.7584 1.98639 21.1132 2.00639 25.4581 2.00639Z" fill="#CACACA" style="fill:#CACACA;fill:color(display-p3 0.7922 0.7922 0.7922);fill-opacity:1;"/>
</svg>
