<?xml version="1.0" encoding="UTF-8" standalone="no"?>
<!-- Created with Inkscape (http://www.inkscape.org/) -->

<svg
   width="4.2322998"
   height="4.2348838"
   viewBox="0 0 4.2322998 4.2348838"
   version="1.1"
   id="svg1"
   xml:space="preserve"
   xmlns="http://www.w3.org/2000/svg"
   xmlns:svg="http://www.w3.org/2000/svg"><defs
     id="defs1" /><g
     id="layer1"
     transform="translate(-125.14844,-64.292716)"><path
       id="circle1"
       style="baseline-shift:baseline;display:inline;overflow:visible;opacity:1;vector-effect:none;fill:#00a82d;enable-background:accumulate;stop-color:#000000;stop-opacity:1"
       d="m 127.26355,64.292716 c -1.16743,0 -2.11511,0.949749 -2.11511,2.117184 0,1.167436 0.94768,2.1177 2.11511,2.1177 1.16744,0 2.11719,-0.950264 2.11719,-2.1177 0,-1.167435 -0.94975,-2.117184 -2.11719,-2.117184 z m 0,0.266134 c 1.02445,0 1.85364,0.826606 1.85364,1.85105 0,1.024445 -0.82919,1.851566 -1.85364,1.851566 -1.02444,0 -1.85156,-0.827121 -1.85156,-1.851566 0,-1.024444 0.82712,-1.85105 1.85156,-1.85105 z m -0.91157,0.743624 c -0.0236,0 -0.0458,0.01172 -0.0599,0.03204 l -0.42685,0.6134 h 0.74001 l 0.29972,-0.645439 z m 0.72037,0 -0.29972,0.645439 h 1.10587 l -0.2992,-0.645439 z m 0.67438,0 0.29972,0.645439 h 0.74001 l -0.42685,-0.6134 c -0.0142,-0.02032 -0.0363,-0.03202 -0.0599,-0.03204 z m -1.88206,0.806669 1.24075,1.828829 -0.50953,-1.828829 z m 0.8878,0 0.57361,2.059306 0.57361,-2.059306 z m 1.3038,0 -0.50953,1.828829 1.24075,-1.828829 z" /></g></svg>
