<svg width="14" height="22" viewBox="0 0 14 22" fill="none" xmlns="http://www.w3.org/2000/svg">
<path d="M7.98815 8.13459L14 7.05175C13.9496 3.14887 10.8363 0 7.00081 0C3.13443 0 0 3.20036 0 7.14808C0 11.0958 3.13443 14.2962 7.00081 14.2962C9.38376 14.2962 11.4886 13.0805 12.7524 11.2237C12.6434 11.2536 12.5312 11.2801 12.4173 11.3001C10.3386 11.6754 8.35576 10.2571 7.98815 8.13459ZM8.87626 4.51903C9.6863 4.37288 10.4589 4.92427 10.6021 5.75301L7.66934 6.28114C7.5262 5.4524 8.06623 4.66352 8.87626 4.51903Z" fill="#808080"/>
<path d="M11.4251 14.6797C10.132 15.4735 8.61926 15.9319 7.00081 15.9319C5.38236 15.9319 3.86801 15.4752 2.57488 14.6813C1.0036 15.9901 0 17.9847 0 20.2168V21.6999H14V20.2168C14 17.983 12.9964 15.9901 11.4251 14.6797Z" fill="#808080"/>
</svg>
