<svg width="24" height="24" viewBox="0 0 24 24" fill="none" xmlns="http://www.w3.org/2000/svg">
<path fill-rule="evenodd" clip-rule="evenodd" d="M6.44202 1.72998C8.0861 0.60267 10.0192 0.00063642 11.9969 0C14.6486 0.00234205 17.1912 1.08351 19.0665 3.00625C20.9419 4.92899 21.9969 7.53622 22 10.2558C22 12.2841 21.4136 14.2668 20.3149 15.9533C19.2162 17.6398 17.6546 18.9543 15.8276 19.7306C14.0005 20.507 11.99 20.7103 10.0503 20.3148C8.11053 19.9193 6.3287 18.9429 4.93005 17.5089C3.5314 16.0749 2.57874 14.2478 2.19253 12.2586C1.80633 10.2694 2.00391 8.20737 2.76031 6.33331C3.5167 4.45925 4.79794 2.85729 6.44202 1.72998ZM6.83457 18.1831C8.36248 19.2307 10.159 19.7902 11.9969 19.7908C14.462 19.7889 16.8257 18.7837 18.5689 16.9959C20.312 15.2082 21.2921 12.7841 21.294 10.2558C21.2934 8.37088 20.7479 6.52846 19.7264 4.96146C18.7049 3.39447 17.2533 2.17326 15.5552 1.45222C13.8571 0.731181 11.9886 0.542691 10.1861 0.910579C8.3835 1.27847 6.72775 2.18621 5.42815 3.51906C4.12855 4.85191 3.24344 6.55001 2.88473 8.39869C2.52602 10.2474 2.70981 12.1636 3.41286 13.9052C4.11591 15.6468 5.30666 17.1354 6.83457 18.1831ZM12.5522 2.01704C16.563 2.28575 19.798 5.63168 20.06 9.75637C20.0851 10.153 19.9078 10.1988 19.6129 10.2511C18.7359 10.4062 17.8596 10.5647 16.9832 10.7231C15.8005 10.937 14.6177 11.1509 13.4331 11.3565C13.1774 11.4016 13.1523 11.4949 13.1977 11.7194C13.619 13.7749 15.8397 15.375 17.8855 15.1023C17.9425 15.0946 18.0071 15.075 18.0725 15.0552C18.2387 15.0049 18.4107 14.9528 18.4794 15.0878C18.5373 15.2023 18.3869 15.3562 18.2498 15.4966C18.2086 15.5388 18.1686 15.5797 18.1358 15.618C16.5026 17.5319 14.4427 18.4957 13.062 18.5142C7.78435 18.5134 4.32263 15.2624 3.96258 10.9985C3.85679 9.80672 4.00496 8.60557 4.39681 7.47833C4.78867 6.35109 5.41484 5.32472 6.23193 4.47035C7.04902 3.61598 8.03748 2.95405 9.12882 2.53043C10.2201 2.10681 11.3882 1.93163 12.5522 2.01704ZM13.6431 9.11093C13.7707 9.09196 13.8985 9.07299 14.0253 9.05001C14.5176 8.96057 15.0098 8.86879 15.5044 8.77657C15.7215 8.73608 15.9392 8.6955 16.1574 8.655C16.1468 8.61603 16.1377 8.58158 16.1294 8.55016C16.1132 8.48882 16.1 8.43899 16.0845 8.38952C15.817 7.54559 14.9439 7.03795 14.0747 7.21897C13.2778 7.38469 12.6847 8.18437 12.724 9.02507L12.724 9.0266C12.7295 9.19941 12.7325 9.29442 12.9593 9.23666C13.1832 9.17924 13.4131 9.1451 13.6431 9.11093Z" fill="black" style="fill:black;fill-opacity:1;"/>
</svg>