<?xml version="1.0" encoding="UTF-8" standalone="no"?>
<!-- Created with Inkscape (http://www.inkscape.org/) -->

<svg
   width="4.2333331"
   height="4.2333331"
   viewBox="0 0 4.2333331 4.2333331"
   version="1.1"
   id="svg1"
   xml:space="preserve"
   xmlns="http://www.w3.org/2000/svg"
   xmlns:svg="http://www.w3.org/2000/svg"><defs
     id="defs1" /><g
     id="layer1"
     transform="translate(-20.024258,-26.638353)"><path
       id="circle1"
       style="opacity:1;fill:#808080;stroke-width:0.264583"
       d="m 22.140925,26.638353 a 2.1166666,2.1166666 0 0 0 -2.116667,2.116667 2.1166666,2.1166666 0 0 0 2.116667,2.116666 2.1166666,2.1166666 0 0 0 2.116666,-2.116666 2.1166666,2.1166666 0 0 0 -2.116666,-2.116667 z m 0,0.470256 c 0.901938,0 1.634561,0.725202 1.646411,1.62419 l -1.413867,0.24908 c 0.08617,0.488935 0.552172,0.815921 1.04128,0.729671 0.0268,-0.0047 0.05326,-0.01067 0.07906,-0.01757 -0.297471,0.427593 -0.792423,0.707451 -1.352889,0.707451 -0.909175,0 -1.646411,-0.737221 -1.646411,-1.646411 0,-0.909193 0.74448,-1.646411 1.646411,-1.646411 z m 0.511596,1.035595 c -0.02326,-6.33e-4 -0.04647,9.7e-4 -0.07028,0.0052 -0.19055,0.03358 -0.31781,0.215237 -0.28422,0.40566 l 0.68988,-0.121957 c -0.02938,-0.166713 -0.172563,-0.284436 -0.33538,-0.288871 z" /></g></svg>
