<svg width="24" height="31" viewBox="0 0 24 31" fill="none" xmlns="http://www.w3.org/2000/svg">
<path d="M11.6462 0C5.22414 0 0 5.15531 0 11.4928C0 20.6162 10.3968 29.7822 10.8394 30.1681C11.0709 30.3682 11.3581 30.4688 11.6462 30.4688C11.9344 30.4688 12.2442 30.3601 12.4778 30.1448C12.9193 29.7375 23.2935 20.0677 23.2935 11.4928C23.2935 5.15633 18.0673 0 11.6462 0Z" fill="white"/>
<path d="M10.6957 4.11005C10.9951 3.18879 12.2985 3.18879 12.5978 4.11005L13.7483 7.65036C13.8822 8.06235 14.2661 8.34129 14.6993 8.34131L18.4219 8.34145C19.3905 8.34148 19.7933 9.58103 19.0096 10.1504L15.9981 12.3386C15.6477 12.5933 15.501 13.0446 15.6349 13.4566L16.7851 16.997C17.0844 17.9183 16.0299 18.6844 15.2462 18.115L12.2345 15.9271C11.8841 15.6724 11.4095 15.6724 11.059 15.9271L8.04735 18.115C7.26364 18.6844 6.20922 17.9183 6.50852 16.997L7.65872 13.4566C7.79257 13.0446 7.64592 12.5933 7.29547 12.3386L4.28395 10.1504C3.50029 9.58103 3.90304 8.34148 4.87173 8.34145L8.59427 8.34131C9.02747 8.34129 9.4114 8.06235 9.54528 7.65036L10.6957 4.11005Z" fill="#FF5000"/>
</svg>
