<svg width="44" height="44" viewBox="0 0 44 44" fill="none" xmlns="http://www.w3.org/2000/svg">
<circle cx="22" cy="22" r="20" fill="#FF5000" style="fill:#FF5000;fill:color(display-p3 1.0000 0.3137 0.0000);fill-opacity:1;"/>
<path fill-rule="evenodd" clip-rule="evenodd" d="M27.089 17.4147H31.1773L31.1774 17.4147C31.6411 17.4147 32.0203 17.7939 31.9992 18.2364V19.6273C31.9992 20.091 31.6409 20.4702 31.1563 20.4702H22.7899V17.5199H21.2093V20.4702H12.8429C12.3793 20.4702 12 20.112 12 19.6273V18.2364C12 17.7728 12.3793 17.3935 12.8429 17.3935L16.9313 17.3934C16.4044 17.2459 15.9197 16.9299 15.5825 16.4872C15.0557 15.8128 14.8871 14.9699 15.0979 14.148C15.3507 13.2419 16.0252 12.5254 16.9102 12.2514C17.7953 11.9774 18.7648 12.1672 19.4813 12.7783L22.0101 14.9489L24.539 12.7783C25.2554 12.1672 26.2249 11.9776 27.11 12.2727C28.0163 12.5466 28.6906 13.2632 28.9224 14.1693C29.1332 14.9912 28.9646 15.8341 28.4377 16.5085C28.0795 16.951 27.6158 17.246 27.089 17.4147ZM17.4371 13.8952C17.0999 14.0005 16.8469 14.2534 16.7627 14.5906C16.6784 14.9068 16.7417 15.2019 16.9525 15.4547C17.1421 15.6864 17.4161 15.834 17.7322 15.834H20.4506L18.3854 14.0848C18.2168 13.9372 17.985 13.853 17.7532 13.853C17.6479 13.853 17.5425 13.853 17.4371 13.8952ZM26.6042 13.8953C26.267 13.7899 25.9299 13.8531 25.6559 14.0849L23.6119 15.8341H26.3304C26.6254 15.8341 26.9204 15.7076 27.1101 15.4548C27.2997 15.2018 27.3629 14.8858 27.2787 14.5907C27.1733 14.2535 26.9414 14.0007 26.6042 13.8953ZM13.5383 31.0285C13.5383 31.4921 13.9176 31.8714 14.3812 31.8714H21.2092V22.072H13.5383L13.5383 31.0285ZM22.7898 31.8713H29.6178C30.0815 31.8713 30.4607 31.4921 30.4607 31.0284V22.072H22.7898L22.7898 31.8713Z" fill="white" style="fill:white;fill-opacity:1;"/>
</svg>
