<?xml version="1.0" encoding="UTF-8" standalone="no"?>
<!-- Created with Inkscape (http://www.inkscape.org/) -->

<svg
   width="4.8060541"
   height="3.9253254"
   viewBox="0 0 4.8060541 3.9253254"
   version="1.1"
   id="svg1"
   xml:space="preserve"
   xmlns="http://www.w3.org/2000/svg"
   xmlns:svg="http://www.w3.org/2000/svg"><defs
     id="defs1" /><g
     id="layer1"
     transform="translate(-133.5928,-214.20192)"><path
       id="path1"
       style="baseline-shift:baseline;display:inline;overflow:visible;vector-effect:none;fill:#808080;stroke-linecap:round;stroke-linejoin:round;enable-background:accumulate;stop-color:#000000"
       d="m 134.23148,214.20192 a 0.1984375,0.1984375 0 0 0 -0.14063,0.0586 0.1984375,0.1984375 0 0 0 0,0.28125 l 0.48242,0.48243 c -0.39148,0.29847 -0.76219,0.64768 -0.96093,1.05468 a 0.19845734,0.19845734 0 0 0 0,0.17383 c 0.4205,0.86116 1.41102,1.6543 2.38281,1.6543 0.37809,0 0.74755,-0.16565 1.0957,-0.36524 l 0.52734,0.52735 a 0.1984375,0.1984375 0 0 0 0.28125,0 0.1984375,0.1984375 0 0 0 0,-0.2793 l -1.29687,-1.29687 -0.93555,-0.93555 -1.29492,-1.29688 a 0.1984375,0.1984375 0 0 0 -0.14062,-0.0586 z m 1.76367,0.22266 c -0.18431,0 -0.36959,0.0299 -0.55078,0.084 a 0.1984375,0.1984375 0 0 0 -0.13282,0.24609 0.1984375,0.1984375 0 0 0 0.2461,0.13477 c 0.14957,-0.0447 0.29748,-0.0684 0.4375,-0.0684 0.70902,0 1.57953,0.6669 1.95898,1.35352 -0.10822,0.1942 -0.23879,0.38986 -0.41211,0.5664 a 0.1984375,0.1984375 0 0 0 0.002,0.28125 0.1984375,0.1984375 0 0 0 0.28125,-0.004 c 0.22895,-0.23318 0.41983,-0.49357 0.55273,-0.76563 a 0.19845734,0.19845734 0 0 0 0,-0.17383 c -0.42061,-0.86102 -1.411,-1.65429 -2.38281,-1.65429 z m -1.15039,0.87109 0.46093,0.46094 c -0.0758,0.12839 -0.16992,0.24933 -0.16992,0.4082 0,0.47255 0.38683,0.86133 0.85938,0.86133 0.15952,0 0.28141,-0.0935 0.41015,-0.16992 l 0.38282,0.38281 c -0.26736,0.13482 -0.54189,0.27148 -0.79297,0.27148 -0.70514,0 -1.56636,-0.66115 -1.94922,-1.34375 0.17874,-0.32137 0.46797,-0.62683 0.79883,-0.87109 z m 0.74023,0.74023 0.53906,0.53907 c -0.0452,0.0148 -0.0782,0.0527 -0.1289,0.0527 -0.25806,0 -0.46289,-0.20482 -0.46289,-0.46289 0,-0.0509 0.0378,-0.0835 0.0527,-0.12891 z" /></g></svg>
