<?xml version="1.0" encoding="UTF-8" standalone="no"?>
<!-- Created with Inkscape (http://www.inkscape.org/) -->

<svg
   width="4.2343602"
   height="5.5567698"
   viewBox="0 0 4.2343602 5.5567698"
   version="1.1"
   id="svg1"
   xml:space="preserve"
   xmlns="http://www.w3.org/2000/svg"
   xmlns:svg="http://www.w3.org/2000/svg"><defs
     id="defs1" /><g
     id="layer1"
     transform="translate(-153.45782,-178.4612)"><path
       id="path1"
       style="baseline-shift:baseline;display:inline;overflow:visible;vector-effect:none;fill:#808080;stroke-linecap:round;stroke-linejoin:round;enable-background:accumulate;stop-color:#000000"
       d="m 155.57501,178.4612 c -0.72748,0 -1.32227,0.59672 -1.32227,1.32422 v 0.52734 c -0.43524,0 -0.79492,0.35967 -0.79492,0.79492 v 2.11719 c 0,0.43525 0.35969,0.79297 0.79492,0.79297 h 2.64453 c 0.43524,0 0.79492,-0.35773 0.79492,-0.79297 v -2.11719 c 0,-0.43524 -0.35968,-0.79492 -0.79492,-0.79492 v -0.52734 c 0,-0.7275 -0.59478,-1.32422 -1.32226,-1.32422 z m 0,0.5293 c 0.4415,0 0.79297,0.35341 0.79297,0.79492 v 0.52734 h -1.58594 v -0.52734 c 0,-0.44151 0.35147,-0.79492 0.79297,-0.79492 z m -1.32227,1.85156 h 0.26367 2.11719 0.26367 c 0.14927,0 0.26563,0.11635 0.26563,0.26562 v 2.11719 c 0,0.14928 -0.11636,0.26367 -0.26563,0.26367 h -2.64453 c -0.14926,0 -0.26562,-0.1144 -0.26562,-0.26367 v -2.11719 c 0,-0.14926 0.11637,-0.26562 0.26562,-0.26562 z m 1.32227,0.66211 a 0.2645835,0.2645835 0 0 0 -0.26367,0.26562 v 0.79297 a 0.2645835,0.2645835 0 0 0 0.26367,0.26367 0.2645835,0.2645835 0 0 0 0.26367,-0.26367 v -0.79297 a 0.2645835,0.2645835 0 0 0 -0.26367,-0.26562 z" /></g></svg>
