<svg width="50" height="50" viewBox="0 0 50 50" fill="none" xmlns="http://www.w3.org/2000/svg">
<path d="M21.0247 5.20043H27.6361C28.3883 5.93043 28.7941 6.52043 29.3483 6.83043C30.8626 7.67043 31.7732 8.91043 32.1988 10.5604C33.0697 13.9704 33.9308 17.3804 34.8017 20.7904C34.8908 21.1604 35.0492 21.5304 35.0492 21.9004C34.9997 28.7204 34.9403 35.5404 34.8611 42.3704C34.8512 43.7004 34.1782 44.6904 33.0202 45.2004C31.1694 46.0104 29.289 46.7804 27.3491 47.3604C26.7849 47.5304 25.8546 47.1904 25.3696 46.7604C24.5977 46.0804 24.1226 45.9004 23.2021 46.5904C22.5786 47.0604 21.4404 47.3704 20.7674 47.1204C19.1146 46.5004 17.5013 45.6504 16.0365 44.6404C14.6509 43.6904 14.1165 42.1704 14.1165 40.4104C14.156 32.1004 14.1264 23.7904 14.1362 15.4704C14.1362 11.4604 16.1751 8.44043 19.7975 6.84043C20.3319 6.61043 20.6882 5.97043 21.1237 5.52043C21.094 5.41043 21.0544 5.30043 21.0247 5.19043V5.20043ZM30.5855 15.9204C30.5855 15.9204 30.635 15.9204 30.6647 15.9104C30.4568 14.1704 30.3579 12.4004 29.9719 10.7004C29.8432 10.1404 29.0019 9.38043 28.4873 9.38043C28.0122 9.38043 27.2303 10.2204 27.1314 10.7904C26.6959 13.1604 27.3095 15.4204 28.3784 17.5104C28.6456 18.0304 29.4077 18.3004 29.9422 18.6904C30.15 18.1004 30.3975 17.5204 30.5657 16.9104C30.6449 16.6004 30.5756 16.2504 30.5756 15.9204H30.5855Z" fill="#CACACA" style="fill:#CACACA;fill:color(display-p3 0.7922 0.7922 0.7922);fill-opacity:1;"/>
<path d="M27.8736 4.14H21.0643C20.8565 2.1 20.9357 2 22.8161 2C23.9444 2 25.0727 2 26.201 2C28.0716 2 28.1607 2.11 27.8736 4.14Z" fill="#CACACA" style="fill:#CACACA;fill:color(display-p3 0.7922 0.7922 0.7922);fill-opacity:1;"/>
</svg>
