<svg width="22" height="22" viewBox="0 0 22 22" fill="none" xmlns="http://www.w3.org/2000/svg">
<path d="M20.7598 10.8799C20.7597 5.42336 16.3364 1 10.8799 1C5.4234 1.00006 1.00006 5.4234 1 10.8799C1 16.3364 5.42336 20.7597 10.8799 20.7598C16.3365 20.7598 20.7598 16.3365 20.7598 10.8799ZM21.7598 10.8799C21.7598 16.8887 16.8887 21.7598 10.8799 21.7598C4.87108 21.7597 0 16.8887 0 10.8799C6.39111e-05 4.87112 4.87112 6.39092e-05 10.8799 0C16.8887 0 21.7597 4.87108 21.7598 10.8799Z" fill="#5CA9BA"/>
<path d="M7.89757 13.562C7.03821 14.4363 6.31867 15.4475 5.53612 16.3975C5.27447 16.715 5.00442 17.0498 4.53993 16.7612C4.09525 16.4851 4.21047 16.1269 4.3989 15.7236C5.04643 14.3361 5.59973 12.9007 6.31327 11.5498C6.78856 10.6496 6.50891 10.2031 5.70115 9.84968C5.18265 9.62223 4.66536 9.38999 4.15826 9.13734C3.8318 8.97471 3.44232 8.79888 3.50714 8.35119C3.57435 7.8855 3.98903 7.76248 4.3875 7.67666C5.29668 7.48103 6.20285 7.26979 7.11802 7.10895C7.67253 7.01114 8.00199 6.73928 8.16222 6.19858C8.45568 5.21019 8.77794 4.23081 9.0942 3.24962C9.22022 2.85775 9.39245 2.44547 9.88875 2.51568C10.3844 2.58589 10.4319 3.00417 10.4271 3.43446C10.4138 4.53447 10.4229 5.63507 10.4229 7.22598C11.1556 9.59523 9.77713 11.6506 7.89757 13.5632V13.562Z" fill="#5CA9BA"/>
<path d="M11.4425 6.63658H11.4383C11.4383 7.43473 11.4341 8.23348 11.4395 9.03163C11.4443 9.74937 11.3519 10.4455 11.9178 11.0858C12.3595 11.5851 12.7952 12.0898 13.2278 12.5963C13.2368 12.6017 13.2464 12.6071 13.2548 12.6131C13.5291 12.4847 13.8136 12.4181 14.0986 12.4181C14.5589 12.4181 14.9634 12.5573 15.291 12.8088C15.3907 12.6701 15.5479 12.5753 15.7297 12.5609L15.8287 12.5531L15.8929 12.073C15.7927 11.8582 15.6937 11.6427 15.5929 11.4279C15.2652 10.7294 15.3738 10.2289 16.1414 9.9168C16.7553 9.66715 17.3428 9.35209 17.9447 9.07124C18.2688 8.92001 18.5401 8.69497 18.495 8.3241C18.45 7.95323 18.1116 7.8044 17.7815 7.72939C16.8459 7.51694 15.9146 7.2571 14.9658 7.13887C14.1622 7.03865 13.8232 6.59277 13.6185 5.89664C13.3473 4.97246 13.0478 4.05609 12.7447 3.14151C12.6247 2.77904 12.4087 2.43038 11.9736 2.51199C11.5685 2.58761 11.4275 2.91887 11.4359 3.34315C11.4563 4.44076 11.4431 5.53897 11.4431 6.63658H11.4425Z" fill="#5CA9BA"/>
<path d="M11.9521 13.1131H12.9219L13.0023 13.481H13.0294C13.3306 13.2134 13.7051 13.0195 14.0994 13.0195C15.0091 13.0195 15.584 13.7823 15.584 14.9525C15.584 16.2631 14.8015 17.0127 13.9853 17.0127C13.6643 17.0127 13.3564 16.8723 13.1026 16.6178L13.1362 17.2131V18.3035H11.9521V13.1131ZM14.3598 14.9723C14.3598 14.3032 14.166 13.9893 13.7447 13.9893C13.5238 13.9893 13.3432 14.0895 13.1362 14.3104V15.8155C13.3234 15.9829 13.5238 16.0363 13.7045 16.0363C14.0658 16.0363 14.3598 15.735 14.3598 14.9729V14.9723Z" fill="#5CA9BA"/>
<path d="M16.2922 15.5072V14.0423H15.7773V13.1596L16.3595 13.1128L16.4933 12.1094H17.4835V13.1128H18.3794V14.0423H17.4835V15.494C17.4835 15.9153 17.6839 16.0827 17.9648 16.0827C18.0854 16.0827 18.2192 16.0425 18.3122 16.0155L18.4995 16.8719C18.299 16.9319 18.0248 17.0123 17.6365 17.0123C16.6799 17.0123 16.2922 16.4104 16.2922 15.5072Z" fill="#5CA9BA"/>
</svg>
