<svg width="28" height="28" viewBox="0 0 28 28" fill="none" xmlns="http://www.w3.org/2000/svg">
<circle cx="14" cy="14" r="14" fill="#5CA9BA"/>
<path d="M10.9839 17.5361C10.0099 18.5271 9.19446 19.6731 8.30758 20.7498C8.01105 21.1096 7.70499 21.4891 7.17858 21.162C6.67461 20.8491 6.80519 20.4431 7.01875 19.986C7.7526 18.4135 8.37967 16.7866 9.18834 15.2556C9.72699 14.2354 9.41006 13.7294 8.49461 13.3288C7.90699 13.071 7.32072 12.8078 6.74602 12.5214C6.37603 12.3371 5.93463 12.1378 6.00809 11.6304C6.08426 11.1026 6.55422 10.9632 7.00583 10.866C8.03621 10.6442 9.06319 10.4048 10.1004 10.2225C10.7288 10.1117 11.1022 9.80358 11.2838 9.19077C11.6164 8.07057 11.9816 6.96058 12.34 5.84855C12.4828 5.40441 12.678 4.93715 13.2405 5.01673C13.8023 5.09631 13.856 5.57037 13.8506 6.05803C13.8356 7.30473 13.8458 8.55211 13.8458 10.3552C14.6762 13.0404 13.114 15.3699 10.9839 17.5375V17.5361Z" fill="white"/>
<path d="M15.002 9.68821H14.9973C14.9973 10.5928 14.9925 11.4981 14.9986 12.4027C15.0041 13.2161 14.8993 14.0051 15.5407 14.7308C16.0412 15.2967 16.535 15.8687 17.0254 16.4427C17.0356 16.4488 17.0465 16.455 17.056 16.4618C17.3668 16.3162 17.6892 16.2407 18.0122 16.2407C18.5339 16.2407 18.9923 16.3985 19.3636 16.6835C19.4765 16.5264 19.6547 16.4189 19.8608 16.4026L19.973 16.3937L20.0458 15.8496C19.9322 15.6061 19.82 15.362 19.7057 15.1185C19.3344 14.3268 19.4575 13.7595 20.3274 13.4059C21.0231 13.1229 21.689 12.7659 22.3711 12.4476C22.7384 12.2762 23.0458 12.0211 22.9948 11.6008C22.9438 11.1804 22.5602 11.0118 22.1862 10.9268C21.1258 10.686 20.0703 10.3915 18.995 10.2575C18.0843 10.1439 17.7001 9.63856 17.4681 8.8496C17.1607 7.80218 16.8213 6.7636 16.4779 5.72706C16.3419 5.31626 16.097 4.92109 15.6039 5.01359C15.1448 5.09929 14.985 5.47473 14.9945 5.95559C15.0177 7.19957 15.0027 8.44423 15.0027 9.68821H15.002Z" fill="white"/>
<path d="M15.5791 17.028H16.6782L16.7693 17.4449H16.7999C17.1413 17.1416 17.5657 16.9219 18.0126 16.9219C19.0436 16.9219 19.6952 17.7863 19.6952 19.1126C19.6952 20.598 18.8083 21.4475 17.8834 21.4475C17.5195 21.4475 17.1706 21.2884 16.8829 21L16.921 21.6747V22.9105H15.5791V17.028ZM18.3078 19.1351C18.3078 18.3767 18.0881 18.021 17.6106 18.021C17.3603 18.021 17.1556 18.1346 16.921 18.3849V20.0907C17.1332 20.2804 17.3603 20.341 17.5651 20.341C17.9745 20.341 18.3078 19.9995 18.3078 19.1357V19.1351Z" fill="white"/>
<path d="M20.4976 19.7416V18.0814H19.9141V17.0809L20.5738 17.0278L20.7254 15.8906H21.8477V17.0278H22.8631V18.0814H21.8477V19.7266C21.8477 20.2041 22.0748 20.3939 22.3931 20.3939C22.5298 20.3939 22.6815 20.3483 22.7869 20.3177L22.9991 21.2882C22.7719 21.3563 22.4611 21.4474 22.0211 21.4474C20.937 21.4474 20.4976 20.7652 20.4976 19.7416Z" fill="white"/>
</svg>
