<?xml version="1.0" encoding="UTF-8" standalone="no"?>
<!-- Created with Inkscape (http://www.inkscape.org/) -->

<svg
   width="4.8066015"
   height="3.4836893"
   viewBox="0 0 4.8066015 3.4836893"
   version="1.1"
   id="svg1"
   xml:space="preserve"
   xmlns="http://www.w3.org/2000/svg"
   xmlns:svg="http://www.w3.org/2000/svg"><defs
     id="defs1" /><g
     id="layer1"
     transform="translate(-152.11336,-123.67066)"><path
       id="path1"
       style="baseline-shift:baseline;display:inline;overflow:visible;vector-effect:none;fill:#808080;stroke-linecap:round;stroke-linejoin:round;enable-background:accumulate;stop-color:#000000;stop-opacity:1;opacity:1"
       d="m 154.51766,123.67066 c -0.18429,0 -0.36955,0.0318 -0.55078,0.0859 a 0.1984375,0.1984375 0 0 0 -0.13477,0.24609 0.1984375,0.1984375 0 0 0 0.24805,0.13477 c 0.14953,-0.0447 0.29742,-0.0684 0.4375,-0.0684 0.70898,0 1.57755,0.66691 1.95703,1.35351 -0.10823,0.1942 -0.23879,0.38989 -0.41211,0.56641 a 0.1984375,0.1984375 0 0 0 0.004,0.28125 0.1984375,0.1984375 0 0 0 0.27929,-0.004 c 0.22896,-0.23319 0.42178,-0.49355 0.55469,-0.76562 a 0.19845734,0.19845734 0 0 0 0,-0.17383 c -0.4206,-0.86101 -1.411,-1.65625 -2.38281,-1.65625 z m -1.16602,0.38867 a 0.1984375,0.1984375 0 0 0 -0.0977,0.0332 c -0.4793,0.31271 -0.88904,0.75913 -1.1211,1.23438 a 0.19845734,0.19845734 0 0 0 0,0.17383 c 0.42051,0.86116 1.41298,1.65429 2.38477,1.65429 0.4355,0 0.87252,-0.16792 1.26172,-0.42187 a 0.1984375,0.1984375 0 0 0 0.0566,-0.27539 0.1984375,0.1984375 0 0 0 -0.27344,-0.0566 c -0.3412,0.22263 -0.7141,0.35742 -1.04492,0.35742 -0.70511,0 -1.56634,-0.66118 -1.94922,-1.34375 0.20258,-0.36421 0.51571,-0.73603 0.90234,-0.98828 a 0.1984375,0.1984375 0 0 0 0.0586,-0.27539 0.1984375,0.1984375 0 0 0 -0.17774,-0.0918 z m 1.20899,0.33985 c -0.50909,0 -0.92578,0.41669 -0.92578,0.92578 0,0.50909 0.41669,0.92578 0.92578,0.92578 0.50909,0 0.92578,-0.41669 0.92578,-0.92578 0,-0.50909 -0.41669,-0.92578 -0.92578,-0.92578 z m 0,0.39648 c 0.2946,0 0.52929,0.2347 0.52929,0.5293 0,0.2946 -0.23469,0.52929 -0.52929,0.52929 -0.2946,0 -0.5293,-0.23469 -0.5293,-0.52929 0,-0.2946 0.2347,-0.5293 0.5293,-0.5293 z" /></g></svg>
