<svg width="25" height="27" viewBox="0 0 25 27" fill="none" xmlns="http://www.w3.org/2000/svg">
<path d="M12.1143 21.0449C12.1147 19.7295 12.4696 18.4385 13.1417 17.3077C13.8138 16.177 14.7782 15.2483 15.9335 14.6193C17.0888 13.9903 18.3922 13.6843 19.7067 13.7335C21.0212 13.7827 22.2982 14.1853 23.4032 14.8988C23.411 14.3567 23.4151 13.7782 23.4151 13.1539C23.4151 9.94417 23.306 7.94089 23.0903 5.86587H23.1209C23.0017 4.70961 22.5601 3.61007 21.8465 2.69248C21.1329 1.77488 20.176 1.07611 19.0847 0.675732C19.0271 0.653901 18.9694 0.633109 18.9111 0.613357C18.4799 0.468392 18.034 0.3713 17.5815 0.323832L17.5384 0.319153C15.8121 0.141904 15.5351 0 11.895 0C8.25484 0 7.66592 0.141904 5.94124 0.321752L5.8981 0.32643C5.42311 0.376313 4.95548 0.480967 4.50453 0.638307V0.614916C3.38013 0.997212 2.38892 1.69388 1.6484 2.62235C0.907877 3.55081 0.449092 4.67214 0.32643 5.8534C0.110196 7.93257 0 9.93794 0 13.1539C0 16.3699 0.110196 18.3752 0.32643 20.4544C0.474085 21.8732 1.10522 23.1981 2.11393 24.2067C3.12265 25.2153 4.44757 25.8463 5.86639 25.9938L5.90954 25.9985C7.63577 26.1784 7.9123 26.3203 11.5524 26.3203C12.7583 26.3203 13.6316 26.3047 14.3172 26.2771C13.619 25.5965 13.0643 24.7827 12.686 23.8841C12.3076 22.9854 12.1132 22.02 12.1143 21.0449ZM6.03273 6.92105H17.3803C17.7087 6.92105 18.0237 7.0515 18.2558 7.2837C18.488 7.5159 18.6185 7.83083 18.6185 8.1592C18.6185 8.48758 18.488 8.80251 18.2558 9.03471C18.0237 9.2669 17.7087 9.39735 17.3803 9.39735H6.03533C5.70695 9.39735 5.39202 9.2669 5.15982 9.03471C4.92762 8.80251 4.79718 8.48758 4.79718 8.1592C4.79718 7.83083 4.92762 7.5159 5.15982 7.2837C5.39202 7.0515 5.70695 6.92105 6.03533 6.92105H6.03273ZM6.03273 14.6956C5.70867 14.689 5.40013 14.5556 5.1733 14.3241C4.94648 14.0925 4.81943 13.7813 4.81943 13.4572C4.81943 13.1331 4.94648 12.8219 5.1733 12.5903C5.40013 12.3588 5.70867 12.2254 6.03273 12.2188H12.5047C12.6694 12.2154 12.8332 12.245 12.9864 12.3057C13.1396 12.3664 13.2792 12.4571 13.3969 12.5724C13.5146 12.6877 13.6081 12.8254 13.672 12.9773C13.7358 13.1293 13.7687 13.2924 13.7687 13.4572C13.7687 13.622 13.7358 13.7851 13.672 13.9371C13.6081 14.089 13.5146 14.2267 13.3969 14.342C13.2792 14.4573 13.1396 14.548 12.9864 14.6087C12.8332 14.6694 12.6694 14.699 12.5047 14.6956H6.03273Z" fill="white"/>
<path d="M19.4315 15.4763C18.3301 15.4763 17.2535 15.8029 16.3377 16.4148C15.422 17.0267 14.7083 17.8964 14.2868 18.9139C13.8653 19.9314 13.755 21.0511 13.9699 22.1313C14.1848 23.2115 14.7151 24.2037 15.4939 24.9825C16.2727 25.7612 17.2649 26.2916 18.3451 26.5065C19.4253 26.7213 20.5449 26.611 21.5624 26.1896C22.58 25.7681 23.4497 25.0544 24.0615 24.1386C24.6734 23.2229 25 22.1463 25 21.0449C25 19.568 24.4133 18.1516 23.369 17.1073C22.3247 16.063 20.9083 15.4763 19.4315 15.4763ZM21.6385 21.8599H19.3207C19.145 21.8599 18.9764 21.7901 18.8521 21.6658C18.7278 21.5415 18.658 21.373 18.658 21.1972V17.6366C18.658 17.4608 18.7278 17.2923 18.8521 17.168C18.9764 17.0437 19.145 16.9739 19.3207 16.9739C19.4965 16.9739 19.6651 17.0437 19.7894 17.168C19.9137 17.2923 19.9835 17.4608 19.9835 17.6366V20.5345H21.6385C21.8143 20.5345 21.9828 20.6043 22.1071 20.7286C22.2314 20.8529 22.3012 21.0214 22.3012 21.1972C22.3012 21.373 22.2314 21.5415 22.1071 21.6658C21.9828 21.7901 21.8143 21.8599 21.6385 21.8599Z" fill="white"/>
</svg>
