<svg width="26" height="20" viewBox="0 0 26 20" fill="none" xmlns="http://www.w3.org/2000/svg">
<path d="M23.08 0H2.92C2.14585 0.000905126 1.40366 0.308838 0.856248 0.856248C0.308838 1.40366 0.000905126 2.14585 0 2.92V17.08C0.000907767 17.8542 0.308841 18.5963 0.856251 19.1437C1.40366 19.6912 2.14585 19.9991 2.92 20H23.08C23.8542 19.9991 24.5963 19.6912 25.1437 19.1437C25.6912 18.5963 25.9991 17.8542 26 17.08V2.92C25.9991 2.14585 25.6912 1.40366 25.1438 0.856248C24.5963 0.308838 23.8542 0.000905126 23.08 0ZM6 15C6 15.2652 5.89464 15.5196 5.70711 15.7071C5.51957 15.8946 5.26522 16 5 16C4.73478 16 4.48043 15.8946 4.29289 15.7071C4.10536 15.5196 4 15.2652 4 15V5C4 4.73478 4.10536 4.48043 4.29289 4.29289C4.48043 4.10536 4.73478 4 5 4C5.26522 4 5.51957 4.10536 5.70711 4.29289C5.89464 4.48043 6 4.73478 6 5V15ZM9 16C8.80222 16 8.60888 15.9414 8.44443 15.8315C8.27998 15.7216 8.15181 15.5654 8.07612 15.3827C8.00043 15.2 7.98063 14.9989 8.01921 14.8049C8.0578 14.6109 8.15304 14.4327 8.29289 14.2929C8.43275 14.153 8.61093 14.0578 8.80491 14.0192C8.99889 13.9806 9.19996 14.0004 9.38268 14.0761C9.56541 14.1518 9.72159 14.28 9.83147 14.4444C9.94135 14.6089 10 14.8022 10 15C9.99921 15.265 9.8936 15.5189 9.70623 15.7062C9.51887 15.8936 9.26497 15.9992 9 16ZM10 12C10 12.2652 9.89464 12.5196 9.70711 12.7071C9.51957 12.8946 9.26522 13 9 13C8.73478 13 8.48043 12.8946 8.29289 12.7071C8.10536 12.5196 8 12.2652 8 12V5C8 4.73478 8.10536 4.48043 8.29289 4.29289C8.48043 4.10536 8.73478 4 9 4C9.26522 4 9.51957 4.10536 9.70711 4.29289C9.89464 4.48043 10 4.73478 10 5V12ZM13 16C12.8022 16 12.6089 15.9414 12.4444 15.8315C12.28 15.7216 12.1518 15.5654 12.0761 15.3827C12.0004 15.2 11.9806 14.9989 12.0192 14.8049C12.0578 14.6109 12.153 14.4327 12.2929 14.2929C12.4327 14.153 12.6109 14.0578 12.8049 14.0192C12.9989 13.9806 13.2 14.0004 13.3827 14.0761C13.5654 14.1518 13.7216 14.28 13.8315 14.4444C13.9414 14.6089 14 14.8022 14 15C13.9992 15.265 13.8936 15.5189 13.7062 15.7062C13.5189 15.8936 13.265 15.9992 13 16ZM14 12C14 12.2652 13.8946 12.5196 13.7071 12.7071C13.5196 12.8946 13.2652 13 13 13C12.7348 13 12.4804 12.8946 12.2929 12.7071C12.1054 12.5196 12 12.2652 12 12V5C12 4.73478 12.1054 4.48043 12.2929 4.29289C12.4804 4.10536 12.7348 4 13 4C13.2652 4 13.5196 4.10536 13.7071 4.29289C13.8946 4.48043 14 4.73478 14 5V12ZM17 16C16.8022 16 16.6089 15.9414 16.4444 15.8315C16.28 15.7216 16.1518 15.5654 16.0761 15.3827C16.0004 15.2 15.9806 14.9989 16.0192 14.8049C16.0578 14.6109 16.153 14.4327 16.2929 14.2929C16.4327 14.153 16.6109 14.0578 16.8049 14.0192C16.9989 13.9806 17.2 14.0004 17.3827 14.0761C17.5654 14.1518 17.7216 14.28 17.8315 14.4444C17.9414 14.6089 18 14.8022 18 15C17.9992 15.265 17.8936 15.5189 17.7062 15.7062C17.5189 15.8936 17.265 15.9992 17 16ZM18 12C18 12.2652 17.8946 12.5196 17.7071 12.7071C17.5196 12.8946 17.2652 13 17 13C16.7348 13 16.4804 12.8946 16.2929 12.7071C16.1054 12.5196 16 12.2652 16 12V5C16 4.73478 16.1054 4.48043 16.2929 4.29289C16.4804 4.10536 16.7348 4 17 4C17.2652 4 17.5196 4.10536 17.7071 4.29289C17.8946 4.48043 18 4.73478 18 5V12ZM22 15C22 15.2652 21.8946 15.5196 21.7071 15.7071C21.5196 15.8946 21.2652 16 21 16C20.7348 16 20.4804 15.8946 20.2929 15.7071C20.1054 15.5196 20 15.2652 20 15V5C20 4.73478 20.1054 4.48043 20.2929 4.29289C20.4804 4.10536 20.7348 4 21 4C21.2652 4 21.5196 4.10536 21.7071 4.29289C21.8946 4.48043 22 4.73478 22 5V15Z" fill="white"/>
</svg>
