<svg width="15" height="18" viewBox="0 0 15 18" fill="none" xmlns="http://www.w3.org/2000/svg">
<path d="M14.9952 7.11318C14.9952 8.04598 14.9805 8.97878 14.999 9.91114C15.0234 11.1512 14.684 12.2769 14.0358 13.2945C12.6949 15.3993 10.8492 16.8416 8.6208 17.7735C7.78125 18.1249 6.96778 18.0468 6.15726 17.6839C4.0302 16.7321 2.24805 15.3256 0.960128 13.2874C0.31953 12.2743 -0.0110736 11.1574 0.000283015 9.92482C0.0187901 7.86896 0.00364794 5.81265 0.00617164 3.75634C0.00743348 2.89505 0.445715 2.36618 1.25288 2.23904C1.57759 2.18784 1.90441 2.15075 2.22786 2.0916C3.81611 1.79935 5.29415 1.19941 6.65274 0.290009C7.22394 -0.0922937 7.76695 -0.0980327 8.33815 0.28118C9.9714 1.36496 11.7514 2.01037 13.6745 2.22536C14.533 2.32116 14.9936 2.87165 14.9952 3.7868C14.9965 4.8953 14.9952 6.00424 14.9952 7.11318ZM6.09879 10.5305C5.59868 10.0034 5.14441 9.52663 4.69267 9.04677C4.53074 8.87504 4.34188 8.78012 4.11012 8.80661C3.83588 8.8384 3.64029 8.98805 3.54902 9.26529C3.4527 9.55797 3.52168 9.81358 3.72778 10.0308C4.3158 10.6488 4.90382 11.2664 5.49268 11.884C5.90236 12.3136 6.2519 12.3122 6.66536 11.8783C8.17832 10.2904 9.69043 8.70154 11.2025 7.11274C11.2614 7.05049 11.3228 6.98825 11.3695 6.91629C11.5247 6.67658 11.5382 6.42186 11.407 6.16802C11.2783 5.91948 11.0671 5.80867 10.8004 5.81176C10.5817 5.81441 10.4219 5.93449 10.2734 6.09076C8.935 7.49901 7.5945 8.90417 6.2561 10.312C6.20226 10.3685 6.16315 10.44 6.09879 10.5305Z" fill="#808080"/>
</svg>
