<?xml version="1.0" encoding="UTF-8" standalone="no"?>
<!-- Created with Inkscape (http://www.inkscape.org/) -->

<svg
   width="3.615283"
   height="4.9397502"
   viewBox="0 0 3.615283 4.9397502"
   version="1.1"
   id="svg1"
   xml:space="preserve"
   xmlns="http://www.w3.org/2000/svg"
   xmlns:svg="http://www.w3.org/2000/svg"><defs
     id="defs1" /><g
     id="layer1"
     transform="translate(-81.271525,-205.22804)"><path
       id="path1"
       style="baseline-shift:baseline;display:inline;overflow:visible;vector-effect:none;fill:#757575;stroke-linecap:round;stroke-linejoin:round;enable-background:accumulate;stop-color:#000000"
       d="m 81.976603,205.22804 c -0.386534,0 -0.705077,0.31854 -0.705078,0.70508 v 3.52929 c 0,0.38654 0.318543,0.70508 0.705078,0.70508 h 2.205078 c 0.386527,0 0.705078,-0.31854 0.705078,-0.70508 v -3.52929 c 0,-0.38654 -0.318553,-0.70508 -0.705078,-0.70508 z m -0.01758,0.5293 c 0.0061,-5.8e-4 0.01129,0 0.01758,0 h 2.205078 c 0.100518,0 0.175781,0.0753 0.175781,0.17578 v 3.52929 c 0,0.10056 -0.07526,0.17579 -0.175781,0.17579 h -2.205078 c -0.100548,0 -0.175781,-0.0752 -0.175781,-0.17579 v -3.52929 c 0,-0.0943 0.0671,-0.16716 0.158203,-0.17578 z m 1.121094,2.99804 a 0.2645835,0.2645835 0 0 0 -0.265625,0.26563 0.2645835,0.2645835 0 0 0 0.265625,0.26367 h 0.002 a 0.2645835,0.2645835 0 0 0 0.263672,-0.26367 0.2645835,0.2645835 0 0 0 -0.263672,-0.26563 z" /></g></svg>
