<svg width="25" height="25" viewBox="0 0 25 25" fill="none" xmlns="http://www.w3.org/2000/svg">
<path d="M12.4934 24.9983C9.49638 24.9983 6.49941 24.9983 3.50244 24.9983C1.94505 24.9961 0.636108 24.0773 0.186348 22.6456C0.074563 22.2808 0.015896 21.9018 0.0121548 21.5203C-0.0074776 20.0658 0.00180316 18.6105 0.00501573 17.1552C0.00501573 16.3749 0.45549 15.926 1.24257 15.9053C3.07552 15.8571 4.56223 14.3197 4.55152 12.4859C4.54081 10.6521 3.06481 9.1408 1.24186 9.0933C0.45656 9.0733 0.00644354 8.62226 0.00501573 7.84339C0.00180316 6.38742 1.83963e-05 4.93252 0.00537268 3.47726C0.0150104 1.49775 1.49922 0.00607101 3.47602 0.00428542C9.48757 -0.00142847 15.4991 -0.00142847 21.5107 0.00428542C23.4868 0.00607101 24.9695 1.49668 24.9806 3.47797C24.9888 4.93323 24.9849 6.38849 24.9806 7.84339C24.9806 8.62262 24.5273 9.07437 23.7427 9.0933C21.9708 9.1383 20.554 10.5353 20.4384 12.352C20.3313 14.039 21.6192 15.6093 23.3204 15.8603C23.4869 15.8844 23.6546 15.8992 23.8227 15.9046C24.4584 15.9268 24.9571 16.3399 24.9649 16.9688C24.9888 18.5919 25.0395 20.2186 24.9446 21.8378C24.8346 23.7087 23.3583 24.9922 21.4821 24.9951C18.4861 25.0003 15.4898 25.0014 12.4934 24.9983ZM17.0266 9.10651C17.0316 8.45942 16.5294 7.96088 15.8826 7.96374C15.5196 7.96552 15.2458 8.13694 14.9981 8.38514C12.7935 10.594 10.5873 12.8022 8.37948 15.0097C8.31524 15.0708 8.25492 15.1359 8.19886 15.2047C8.08498 15.3474 8.00753 15.5158 7.97319 15.6952C7.93885 15.8746 7.94864 16.0596 8.00173 16.2344C8.05481 16.4092 8.1496 16.5684 8.2779 16.6983C8.40621 16.8283 8.56419 16.925 8.73821 16.9803C9.20582 17.1292 9.60739 16.9974 9.95185 16.6528C10.8592 15.7414 11.7681 14.8317 12.6786 13.9237C13.9886 12.6123 15.2991 11.3015 16.6101 9.9911C16.8571 9.74361 17.0313 9.46792 17.0266 9.10437V9.10651ZM15.8933 14.2062C15.557 14.207 15.2284 14.3075 14.9491 14.4951C14.6698 14.6826 14.4524 14.9487 14.3242 15.2598C14.1959 15.5709 14.1627 15.9131 14.2288 16.2431C14.2948 16.573 14.457 16.876 14.695 17.1138C14.933 17.3516 15.2361 17.5135 15.5661 17.579C15.896 17.6446 16.2379 17.6109 16.5487 17.4821C16.8594 17.3534 17.1251 17.1354 17.3122 16.8557C17.4992 16.5761 17.5992 16.2472 17.5996 15.9107C17.5998 15.6865 17.5558 15.4644 17.4701 15.2572C17.3845 15.05 17.2588 14.8618 17.1003 14.7032C16.9418 14.5447 16.7536 14.419 16.5465 14.3334C16.3394 14.2477 16.1174 14.2037 15.8933 14.204V14.2062ZM10.7889 9.0958C10.789 8.75942 10.6896 8.43054 10.503 8.15067C10.3165 7.8708 10.0513 7.65249 9.74086 7.5233C9.43042 7.3941 9.08869 7.35981 8.75879 7.42475C8.4289 7.4897 8.12562 7.65096 7.88726 7.88819C7.64889 8.12543 7.48611 8.42799 7.41948 8.7577C7.35284 9.08741 7.38532 9.42947 7.51283 9.74072C7.64034 10.052 7.85716 10.3185 8.13592 10.5065C8.41468 10.6946 8.74288 10.7958 9.0791 10.7975C9.30335 10.7984 9.52557 10.755 9.73301 10.6697C9.94045 10.5845 10.129 10.4592 10.288 10.3009C10.4469 10.1426 10.573 9.95447 10.6591 9.7473C10.7452 9.54014 10.7895 9.31801 10.7896 9.09366L10.7889 9.0958Z" fill="white"/>
</svg>
