<svg width="44" height="44" viewBox="0 0 44 44" fill="none" xmlns="http://www.w3.org/2000/svg">
<circle cx="22" cy="22" r="20" fill="#34C759" style="fill:#34C759;fill:color(display-p3 0.2039 0.7804 0.3490);fill-opacity:1;"/>
<path d="M32.6559 28.9895L23.5759 19.9095C24.5059 17.5695 24.0259 14.8095 22.1359 12.9095C19.8359 10.6095 16.2559 10.3995 13.7059 12.2595L17.5459 16.1095L16.1259 17.5195L12.2959 13.6895C10.4359 16.2295 10.6459 19.8195 12.9459 22.1095C14.8059 23.9695 17.5159 24.4595 19.8359 23.5895L28.9459 32.6995C29.3359 33.0895 29.9659 33.0895 30.3559 32.6995L32.6559 30.3995C33.0559 30.0195 33.0559 29.3895 32.6559 28.9895ZM29.6559 30.5895L20.1959 21.1295C19.5859 21.5795 18.9059 21.8495 18.1959 21.9495C16.8359 22.1495 15.4059 21.7395 14.3659 20.6995C13.4159 19.7595 12.9759 18.4995 13.0459 17.2595L16.1359 20.3495L20.3759 16.1095L17.2859 13.0195C18.5259 12.9495 19.7759 13.3895 20.7259 14.3295C21.8059 15.4095 22.2159 16.8995 21.9659 18.2895C21.8459 18.9995 21.5459 19.6595 21.0859 20.2495L30.5359 29.6995L29.6559 30.5895Z" fill="white" style="fill:white;fill-opacity:1;"/>
</svg>
