<svg width="44" height="44" viewBox="0 0 44 44" fill="none" xmlns="http://www.w3.org/2000/svg">
<circle cx="22" cy="22" r="20" fill="#AAAAAA" style="fill:#AAAAAA;fill:color(display-p3 0.6667 0.6667 0.6667);fill-opacity:1;"/>
<path fill-rule="evenodd" clip-rule="evenodd" d="M22.2127 12.0195C22.2127 11.8395 22.3142 11.6783 22.4802 11.5999L22.48 11.5996C22.6414 11.5258 22.8351 11.5534 22.9735 11.6686L27.1045 15.2278C27.206 15.3154 27.2659 15.4398 27.2659 15.5736C27.2659 15.712 27.206 15.8365 27.1045 15.924L22.9735 19.4926C22.8353 19.608 22.6463 19.6357 22.4803 19.5618C22.3142 19.488 22.2128 19.3219 22.2128 19.1422V18.091C18.1603 18.2988 14.6702 21.2355 13.8033 25.2235C13.7571 25.4357 13.5727 25.5832 13.3561 25.5878H13.3514C13.1394 25.5878 12.9504 25.4357 12.9042 25.2281C12.7474 24.5366 12.6689 23.8128 12.6689 23.0844C12.6689 17.7272 16.9107 13.3379 22.2127 13.0936V12.0195ZM21.0272 24.5112C21.1654 24.3911 21.359 24.3635 21.5204 24.4373L21.5199 24.4373C21.686 24.5155 21.7919 24.6769 21.7919 24.8569L21.7916 25.9076C25.8397 25.7004 29.3345 22.7681 30.1967 18.7801C30.2429 18.5679 30.4319 18.4158 30.6486 18.4158C30.8652 18.4158 31.0499 18.5635 31.1005 18.7755C31.2526 19.4673 31.3311 20.1864 31.3311 20.9148C31.3311 26.2767 27.0943 30.6659 21.7923 30.9056V31.9797C21.7923 32.1597 21.6864 32.3255 21.5204 32.3993C21.4605 32.4272 21.3959 32.4409 21.3314 32.4409C21.2206 32.4409 21.1147 32.4042 21.0318 32.3306L16.8962 28.776C16.7947 28.6884 16.7395 28.5593 16.7395 28.4256C16.7395 28.2918 16.7947 28.1627 16.8962 28.0752L21.0272 24.5112Z" fill="white" style="fill:white;fill-opacity:1;"/>
</svg>
